<?xml version="1.0" standalone="no"?>
<!DOCTYPE svg PUBLIC "-//W3C//DTD SVG 1.0//EN" "http://www.w3.org/TR/2001/REC-SVG-20010904/DTD/svg10.dtd">
<svg xmlns="http://www.w3.org/2000/svg" xmlns:xlink="http://www.w3.org/1999/xlink" id="body_1" width="172" height="61">

<g transform="matrix(0.6880001 0 0 0.6880001 -0 0.22799921)">
	<g>
        <path d="M29.219 60.303C 24.772999 60.303 22.636 56.885002 23.751999 52.931C 26.056 44.736 40.861 32.592 50.949997 32.592C 58.306995 32.592 57.746998 39.175 53.434 44.79L53.434 44.79L51.05 47.429C 42.499 55.82 34.572 60.303 29.219 60.303M65.279 5.041C 52.403 5.046 38.224 12.923 29.319 20.383L29.319 20.383L30.022 21.402C 43.843998 11.713 63.023 5.413 68.31 14.863001C 71.102 19.848001 66.363 29.916 59.688995 37.873C 61.284996 34.359 60.230995 27.612001 50.924995 27.612001C 35.455 27.612 5 48.105 5 69.078C 5 77.479004 10.828 82.96001 20.428001 82.96001C 46.124 82.96001 80.972 40.840008 80.972 19.685005C 80.972 12.212 76.673 5.041 65.279 5.041" stroke="none" fill="#000066" fill-rule="nonzero" />
        <path d="M98.361 60.303C 96.865 60.303 95.62 59.781002 94.841 58.828003C 94.02901 57.829002 93.787 56.413002 94.172005 54.951004C 95.02701 51.779003 98.44601 49.287003 101.962006 49.287003L101.962006 49.287003L110.23201 49.287003L107.27701 60.303L98.361 60.303zM122.129 27.279C 119.764 24.370998 115.935 23.07 113.195 23.07L113.195 23.07L98.167 23.07L95.616 32.584L109.789 32.584L111.147 32.727C 111.161 32.727 112.448006 32.877003 113.166 33.843002C 113.746 34.651 113.831 35.851 113.414 37.425003L113.414 37.425003L112.744 39.929005L103.814 39.929005C 96.128006 39.929005 85.413 45.443005 83.024 54.349007C 81.836 58.79001 82.877 62.63701 85.185005 65.464005C 87.475006 68.270004 91.797005 69.81901 96.466 69.81901L96.466 69.81901L104.73601 69.81901L104.73101 69.81901L115.24201 69.81901L120.17201 51.40801L123.80101 37.875008C 125.226 32.554 123.682 29.174 122.129 27.279" stroke="none" fill="#000066" fill-rule="nonzero" />
        <path d="M225.361 23.07C 221.295 23.07 217.517 24.272999 214.44499 26.55C 211.34299 28.847 209.63199 31.606998 208.612 35.414C 206.399 43.665 212.883 47.647003 218.093 50.47C 221.83 52.494 225.062 54.24 224.362 56.826C 223.868 58.682 223.057 60.306 218.46 60.306L218.46 60.306L204.427 60.306L201.881 69.819L217.414 69.819C 221.579 69.819 225.423 68.952 228.52 66.574C 231.62001 64.187996 233.37201 60.864 234.455 56.807C 235.495 52.946 234.794 49.258 232.309 46.506C 230.238 44.195 227.259 42.59 224.634 41.172C 221.27 39.362 218.098 37.654 218.65201 35.584C 218.99101 34.331 220.23401 32.584 222.951 32.584L222.951 32.584L236.602 32.584L239.154 23.07L225.361 23.07z" stroke="none" fill="#000066" fill-rule="nonzero" />
        <path d="M143.921 23.07C 139.856 23.07 136.07901 24.272999 133.00601 26.55C 129.904 28.847 128.19301 31.606998 127.16301 35.414C 124.95501 43.665 131.44402 47.647003 136.65302 50.47C 140.39201 52.494 143.61601 54.24 142.92302 56.826C 142.42403 58.682 141.61702 60.306 137.02002 60.306L137.02002 60.306L122.98902 60.306L120.43802 69.819L135.97002 69.819C 140.14001 69.819 143.98302 68.952 147.08002 66.574C 150.18501 64.187996 151.93301 60.864 153.01602 56.807C 154.05202 52.946 153.35002 49.258 150.87502 46.506C 148.80402 44.195 145.82002 42.59 143.19002 41.172C 139.83102 39.362 136.66302 37.654 137.21802 35.584C 137.55101 34.331 138.79901 32.584 141.51102 32.584L141.51102 32.584L155.15402 32.584L157.71002 23.07L143.921 23.07z" stroke="none" fill="#000066" fill-rule="nonzero" />
        <path d="M165.115 23.07L152.932 69.819L163.225 69.819L175.398 23.07L165.115 23.07" stroke="none" fill="#000066" fill-rule="nonzero" />
        <path d="M202.781 23.07C 184.66 23.135 175.177 35.203 172.167 46.445C 168.60101 59.775 175.697 69.82 188.67401 69.82L188.67401 69.82L197.37001 69.82L199.91602 60.307L191.22302 60.307C 186.36603 60.307 179.68703 56.485 182.37903 46.445C 184.51703 38.465 192.29803 32.585 200.83302 32.585L200.83302 32.585L206.35503 32.585L208.90602 23.071L202.781 23.071L202.781 23.07z" stroke="none" fill="#000066" fill-rule="nonzero" />
	</g>
</g>
</svg>