<?xml version="1.0" standalone="no"?>
<!DOCTYPE svg PUBLIC "-//W3C//DTD SVG 1.0//EN" "http://www.w3.org/TR/2001/REC-SVG-20010904/DTD/svg10.dtd">
<svg xmlns="http://www.w3.org/2000/svg" xmlns:xlink="http://www.w3.org/1999/xlink" id="body_1" width="90" height="61">

<g transform="matrix(0.09 0 0 0.09050445 0 0)">
	<g transform="matrix(1 0 0 1 -24.157501 -110.6356)">
		<g transform="matrix(1.3940505 0 0 1.3940505 -65.627 -498.4682)">
			<g transform="matrix(0.99990916 0 0 0.9999087 0.00584667 -2.503902)">
                <path d="M533.9435 756.70465L386.43317 500.34378L492.40482 439.4751L675.8331 756.70465L533.9435 756.70465" stroke="none" fill="#000000" fill-rule="nonzero" />
                <path d="M141.03958 720.78674L247.01123 659.5069L303.0816 756.70465L161.60329 756.70465L141.03958 720.78674" stroke="none" fill="#000000" fill-rule="nonzero" />
                <path d="M349.00723 920.25464L379.1673 920.25464L379.1673 798.2434L349.00723 798.2434L349.00723 920.25464z" stroke="none" fill="#000000" fill-rule="nonzero" />
                <path d="M726.96826 923.13367C 693.2437 923.13367 672.9541 905.7231 671.8574 881.18365L671.8574 881.18365L703.6627 881.18365C 703.6627 888.8608 708.46094 900.1023 729.02466 900.5136C 742.73376 900.5136 749.17706 892.4251 749.17706 886.3931C 748.35443 876.79675 736.2904 875.9741 723.4039 873.9178C 710.51733 871.8614 699.55 869.5309 691.5987 865.41815C 681.4538 860.2087 674.59924 848.9672 674.59924 836.0807C 674.59924 814.283 693.5178 797.00964 725.0489 797.00964C 755.6203 797.00964 774.9502 813.04926 777.0066 836.90314L777.0066 836.90314L746.298 836.90314C 746.02386 830.4599 744.7901 820.3152 726.6939 820.3152C 714.4928 820.3152 706.4044 822.7827 705.7189 831.28253C 705.7189 843.75775 731.0809 842.93524 750.822 848.14465C 769.7406 852.94293 781.8047 864.7328 781.8047 881.1837C 781.8047 911.48096 757.26526 923.1337 726.96814 923.1337" stroke="none" fill="#000000" fill-rule="nonzero" />
                <path d="M265.2444 611.9362L371.21603 550.79346L490.07428 756.70465L379.16733 756.70465L379.16733 786.8647L349.00726 786.8647L349.00726 756.56757L265.2444 611.9362" stroke="none" fill="#000000" fill-rule="nonzero" />
                <path d="M267.98624 923.13367C 232.89081 923.13367 204.37581 894.48145 204.37581 859.7975C 204.37581 824.702 232.89082 797.00964 267.98624 797.00964C 281.2841 797.00964 293.3481 800.5739 303.90417 807.8398L303.90417 807.8398L303.90417 756.7047L334.06427 756.7047L334.06427 920.2547L303.90417 920.2547L303.90417 912.1664C 293.3481 919.021 281.28412 923.1337 267.98624 923.1337L267.98624 923.1337L267.98624 923.13367zM233.3021 859.7975C 233.3021 878.716 249.47888 894.48145 268.80875 894.48145C 287.72736 894.48145 303.90417 878.71594 303.90417 859.7975C 303.90417 840.87885 287.72736 824.702 268.80875 824.702C 249.47888 824.702 233.3021 840.87885 233.3021 859.7975" stroke="none" fill="#000000" fill-rule="nonzero" />
                <path d="M490.89682 756.70465L520.6456 756.70465L520.6456 920.25464L490.8968 920.25464L490.8968 912.1663C 480.752 919.02094 468.27673 923.13367 454.56757 923.13367C 419.88342 923.13367 391.36844 894.48145 391.36844 859.7975C 391.36844 824.702 419.88342 797.00964 454.56757 797.00964C 468.2767 797.00964 480.34073 800.5739 490.8968 807.8398L490.8968 807.8398L490.8968 756.7047L490.89682 756.70465zM420.70602 859.7974C 420.70602 878.71594 436.88278 894.4814 455.39017 894.4814C 474.72006 894.4814 490.89682 878.7159 490.89682 859.7974C 490.89682 840.8788 474.72006 824.70197 455.39017 824.70197C 436.88278 824.70197 420.70602 840.8788 420.70602 859.7974" stroke="none" fill="#000000" fill-rule="nonzero" />
                <path d="M593.98956 923.13367C 559.4425 923.13367 530.7904 894.48145 530.7904 859.7975C 530.7904 824.702 559.4425 797.00964 593.98956 797.00964C 607.2875 797.00964 619.76263 800.5739 629.90753 807.8398L629.90753 807.8398L629.90753 798.1064L660.06757 798.1064L660.06757 920.2547L629.90753 920.2547L629.90753 912.1664C 619.76263 919.021 607.6987 923.1337 593.98956 923.1337L593.98956 923.1337L593.98956 923.13367zM560.128 859.7975C 560.128 878.716 576.30475 894.48145 595.2234 894.48145C 614.142 894.48145 629.9076 878.71594 629.9076 859.7975C 629.9076 840.87885 614.1421 824.702 595.2234 824.702C 576.3048 824.702 560.128 840.87885 560.128 859.7975" stroke="none" fill="#000000" fill-rule="nonzero" />
                <path d="M93.468864 859.7974C 93.468864 878.71594 109.645645 894.4814 128.56427 894.4814C 147.89413 894.4814 164.07092 878.7159 164.07092 859.7974C 164.07092 840.8788 147.89413 824.70197 128.56427 824.70197C 109.64565 824.70197 93.468864 840.8788 93.468864 859.7974zM127.74171 923.1336C 93.05759 923.1336 64.40549 894.4814 64.40549 859.7974C 64.40549 824.70197 93.05758 797.0096 127.74171 797.0096C 141.03958 797.0096 153.5149 800.57385 164.07092 807.8397L164.07092 807.8397L164.07092 798.1063L193.81975 798.1063L193.81975 920.25464L164.07092 920.25464L164.07092 912.1663C 153.92618 919.02094 141.45084 923.13367 127.7417 923.13367" stroke="none" fill="#000000" fill-rule="nonzero" />
			</g>
		</g>
	</g>
</g>
</svg>