<svg width="223" height="61" xmlns="http://www.w3.org/2000/svg">
 <defs>
  <style>.cls-1{fill:#0082c8;}</style>
 </defs>
 <title>Hoka Logo Vector</title>
 <g>
  <title>background</title>
  <rect fill="none" id="canvas_background" height="63" width="225" y="-1" x="-1"/>
 </g>
 <g>
  <title>Layer 1</title>
  <defs>
   <style>.cls-1{fill:#0082c8;}</style>
  </defs>
  <defs>
   <style>.cls-1{fill:#0082c8;}</style>
  </defs>
  <g id="svg_15">
   <g transform="matrix(0.346992, 0, 0, 0.346992, -0.28365, -1.15345)" id="svg_14" class="layer">
    <title>Layer 1</title>
    <path id="svg_12" d="m632.932183,168.411001a0.61,0.61 0 0 1 0.17,0.39c0,0.25 0,0.33 -0.59,0.33l-0.4,0c-0.42,0 -0.42,0 -0.64,-0.39l-2.43,-4.19l-0.62,0l-0.5,4c0,0.5 0,0.53 -0.59,0.53l-0.5,0c-0.45,0 -0.56,0 -0.56,-0.36l0,-0.25l1.26,-10c0,-0.51 0,-0.53 0.58,-0.53l1.65,0a3.7,3.7 0 0 1 2.6,0.67a3.42,3.42 0 0 1 0.09,4.92a3.3,3.3 0 0 1 -1.82,0.87l2.3,4.01zm-4.36,-5.35l0.75,0c1,0 1.51,0 1.9,-0.56a2.15,2.15 0 0 0 0.51,-1.39a1.58,1.58 0 0 0 -0.84,-1.46a4.46,4.46 0 0 0 -1.2,-0.17l-0.7,0l-0.42,3.58zm1.23,-8.83a9.31,9.31 0 1 0 9.31,9.31a9.31,9.31 0 0 0 -9.31,-9.31zm0,17.39a8.08,8.08 0 1 1 8.08,-8.08l0,0a8.08,8.08 0 0 1 -8.08,8.08zm-262.32,-92.93a84.16,84.16 0 0 1 -11.89,6.53a87.75,87.75 0 0 1 -14.48,3.73c-2.09,0.37 -10.93,1.57 -11,1.6c-2.3,0.36 -4.81,0.75 -8,1.17c-4,0.56 -8.76,1.26 -15.13,2.27l-2,0.33a111.56,111.56 0 0 0 -27,6.77a96.71,96.71 0 0 0 -10.07,4.39l-0.5,0.28l-3.41,1.93c-2.8,1.6 -7.25,4.17 -11.19,6.1a6.28,6.28 0 0 1 -4.92,0.64a6.4,6.4 0 0 1 -4.25,-2.57c-2.8,-3.36 -5.85,-7.52 -7.67,-10.1c-1,-1.4 -1.79,-2.46 -2.26,-3.16l-0.37,-0.42a87.57,87.57 0 0 0 -7.49,-8.16a110.48,110.48 0 0 0 -21.81,-17.12l-1.65,-1.12c-5.43,-3.49 -9.57,-6.09 -12.92,-8.19l-6.57,-4.37s-7.66,-4.76 -9.42,-6a86.67,86.67 0 0 1 -11.69,-9.31a83.05,83.05 0 0 1 -8.19,-10.69c-0.34,-0.59 0.28,-1.4 0.84,-1.82a2.3,2.3 0 0 1 1.51,-0.39a0.88,0.88 0 0 1 0.47,0.28c0,0.17 0.5,0.59 1,1.2c1.59,1.93 4.89,5.93 7.24,8.39a76.52,76.52 0 0 0 14.35,10.63l0.95,0.59c1.09,0.75 5.26,3 7,3.91c4.36,2.21 9.59,4.45 14.35,6.41s9.95,3.83 13.7,5.76l0.64,0.3a115.37,115.37 0 0 1 16.11,10.55a158.37,158.37 0 0 0 16.14,9.76a18.69,18.69 0 0 0 10.74,2.29a151.25,151.25 0 0 0 18.73,-2.38a119.66,119.66 0 0 1 19,-3.07l0.7,0a138.3,138.3 0 0 1 14.88,0.33a144.51,144.51 0 0 0 15.72,0a77.2,77.2 0 0 0 8,-0.72l1.12,-0.14a76,76 0 0 0 17.5,-3.89c3.14,-1.23 7.78,-3.58 10,-4.7l1.4,-0.7a0.8,0.8 0 0 1 0.53,0a2.14,2.14 0 0 1 1.23,1c0.34,0.45 0.56,1.51 0.09,1.9l-0.06,-0.02zm241.73,90.11l-28.49,-156.89a5.6,5.6 0 0 0 -5.6,-4.59l-38.01,0c-6.82,0 -7.47,0.17 -9.68,4l-1.17,2.27l-70.28,123l-28,-44l59.75,-73.37a12.71,12.71 0 0 0 3.69,-7.44c0,-3.3 -1.68,-4.42 -9,-4.42l-31.46,0c-4.73,0 -5.18,0.28 -9.06,5l-55.35,67.93l11.44,-63.15a24.82,24.82 0 0 0 0.78,-4.53c0.25,-4.31 -1.7,-5.29 -8.92,-5.29l-25.45,0c-8.39,0 -8.86,0.23 -10.35,8.39l-10.37,57.75c-3.52,-41.81 -34.93,-68.93 -82.22,-68.93c-35.63,0 -65.38,15.29 -82.81,40.18c1,0.67 2.07,1.35 3.19,2l1.09,0.67c0.73,0.47 4.5,2.6 6.43,3.58c4.17,2.09 9.21,4.36 14,6.18l0.33,0.14a150.08,150.08 0 0 1 14,5.84l0.56,0.28l0.16,0a50.37,50.37 0 0 1 39.38,-17.67c22.68,0 38.34,13.25 41.3,34.06c3.86,0 8.23,0.14 12.81,0.36l0.42,0c4.95,0.23 10.46,0.23 15.16,0a64.58,64.58 0 0 0 7.33,-0.64l1.25,-0.17a67.51,67.51 0 0 0 16.14,-3.55c2.8,-1.15 7.41,-3.41 9.57,-4.47l1,-0.51l0.28,-0.14l0.51,-0.25a6.5,6.5 0 0 1 3.8,-0.33a7.68,7.68 0 0 1 5,3.72a6.91,6.91 0 0 1 -1.65,9.31a88.79,88.79 0 0 1 -13.09,7.16a95,95 0 0 1 -15.46,4c-1.49,0.26 -5.6,0.84 -9.82,1.43l-1.31,0.17c-2.27,0.39 -4.84,0.75 -8.09,1.23c-3.77,0.53 -8.53,1.2 -15,2.21l-1.9,0.33c-3.33,0.59 -6,1 -8.22,1.43c-5.59,21.34 -23.88,35.29 -47.77,35.29c-27.09,0 -44.24,-18 -42.67,-44.6a53,53 0 0 1 1.4,-9.29c-2,-1.4 -4.45,-3 -7.61,-5.09l-1.65,-1.12c-5.43,-3.52 -9.51,-6.09 -12.78,-8.13c-2.8,-1.71 -5,-3.11 -6.88,-4.39l-1.17,-0.54c-3.61,-2.23 -7.11,-4.44 -8.39,-5.28a94.22,94.22 0 0 1 -12.5,-10a89.18,89.18 0 0 1 -9,-11.83a6.93,6.93 0 0 1 2.27,-9.23a7.8,7.8 0 0 1 6,-1.4a6.51,6.51 0 0 1 3.52,1.93a2.74,2.74 0 0 1 0.39,0.45l0.17,0.22l0.73,0.87c1.51,1.84 4.7,5.59 6.88,7.94a46.87,46.87 0 0 0 5.59,4.84l4.36,-24.5l0.64,-4.56c0.51,-4.14 -1.7,-5.29 -9,-5.29l-26.18,0c-8.39,0 -8.86,0.23 -10.35,8.39l-9.39,52.72l-60.32,0l9.28,-51.26a25.29,25.29 0 0 0 0.78,-4.56c0.26,-4.31 -1.7,-5.29 -9,-5.29l-26,0c-8.39,0 -8.86,0.23 -10.35,8.39l-27.16,149.68l-0.53,4.53c-0.23,4.31 1.7,5.15 8.78,5.15l26,0c8.39,0 8.86,0 10.35,-8.17l11.18,-61.38l60.3,0l-10.8,59.87a22.49,22.49 0 0 0 -0.78,4.53c-0.23,4.31 2.46,5.15 9.79,5.15l25.16,0c8.39,0 8.89,0 10.37,-8.17l10.74,-59.29c3.92,42.29 37,70.25 85.94,70.25c31.46,0 57.13,-11.74 74.42,-33.72a98.35,98.35 0 0 0 12,-20.19l-7.47,41.44l-0.5,4.53c-0.5,4.31 1.42,5.15 8.39,5.15l25.34,0c8.38,0 8.89,0 10.37,-8.17l12.14,-66.92a221.41,221.41 0 0 0 11.35,21.7l29.28,48.24c3.08,4.92 3.44,5.18 8.25,5.15l44.41,0c7.08,0 7.61,0.17 9.93,-4.14l1.2,-2.27l12.67,-24l59.06,0l3.61,26.37a4.68,4.68 0 0 0 4.62,4l36.6,0a5.37,5.37 0 0 0 5.37,-5.37a5,5 0 0 0 -0.08,-0.95l0.09,0.04zm-90.72,-57.67l26.79,-53.47l7.3,53.47l-34.09,0z" class="cls-1"/>
   </g>
  </g>
 </g>
</svg>