<?xml version="1.0" standalone="no"?>
<!DOCTYPE svg PUBLIC "-//W3C//DTD SVG 1.0//EN" "http://www.w3.org/TR/2001/REC-SVG-20010904/DTD/svg10.dtd">
<svg xmlns="http://www.w3.org/2000/svg" xmlns:xlink="http://www.w3.org/1999/xlink" id="body_1" width="170" height="61">

<g transform="matrix(0.17 0 0 0.17 -22.950003 -61.16316)">
    <path d="M245.8075 717.6241C 216.01161 716.44037 191.6341 708.2873 172.5729 693.1445C 168.93515 690.25165 160.2668 681.5782 157.35864 677.92C 149.62906 668.2007 144.37398 658.74146 140.86887 648.2466C 130.08316 615.9405 135.63417 573.54767 156.7464 527.0223C 174.8229 487.19067 202.71571 447.68567 251.37892 392.9715C 258.54727 384.9204 279.8942 361.3746 280.03195 361.3746C 280.08295 361.3746 278.9197 363.3899 277.45544 365.844C 264.8024 387.03778 253.97588 412.00198 248.07794 433.6143C 238.60345 468.2928 239.7463 498.05298 251.42487 521.1294C 259.481 537.0274 273.29218 550.7978 288.82275 558.41C 316.0115 571.7314 355.81757 572.8335 404.42975 561.63446C 407.7767 560.85895 573.6234 516.83344 772.9802 463.79785C 972.3371 410.75705 1135.4746 367.39496 1135.5001 367.43066C 1135.5562 367.47665 672.3375 565.69055 431.8736 668.5221C 393.79202 684.8027 383.6084 688.9149 365.70532 695.2006C 319.94006 711.27203 278.94525 718.9404 245.80753 717.62415L245.80753 717.62415L245.8075 717.6241z" stroke="none" fill="#000000" fill-rule="nonzero" />
</g>
</svg>