<?xml version="1.0" standalone="no"?>
<!DOCTYPE svg PUBLIC "-//W3C//DTD SVG 1.0//EN" "http://www.w3.org/TR/2001/REC-SVG-20010904/DTD/svg10.dtd">
<svg xmlns="http://www.w3.org/2000/svg" xmlns:xlink="http://www.w3.org/1999/xlink" id="body_1" width="118" height="60">

<g transform="matrix(0.17002884 0 0 0.16949153 0 0)">
	<g transform="matrix(1 0 0 1 -27.37219 -415.2404)">
        <path d="M27.372192 671.33966L27.372192 588.00507L73.87209 588.00507C 100.02326 588.00507 122.98453 589.40326 126.34202 591.20013C 131.90294 594.1763 132.31206 598.17975 132.31206 649.62256C 132.31206 716.4284 133.291 714.5502 98.47067 714.5502C 71.05523 714.5502 70.58272 714.97284 70.58272 739.4944L70.58272 739.4944L70.58272 754.67426L48.977455 754.67426L27.372192 754.67426L27.372192 671.33966zM86.01505 651.60785C 86.01505 617.8998 85.1693 609.9462 81.432434 608.51227C 73.5699 605.4951 70.58272 617.1441 70.58272 650.8223C 70.58272 687.3099 71.8656 692.94495 80.17233 692.94495C 85.61414 692.94495 86.01505 690.1085 86.01505 651.60785zM150.93944 748.7042C 148.98076 745.04443 147.74438 712.79663 147.74438 665.3696L147.74438 665.3696L147.74438 588.00507L170.89287 588.00507L194.04137 588.00507L194.04137 655.31744C 194.04137 706.9129 195.01305 723.9586 198.20284 728.3209C 207.7745 741.41095 209.4737 730.93176 209.4737 658.81165L209.4737 658.81165L209.4737 588.00507L232.6222 588.00507L255.77069 588.00507L255.77069 667.6359C 255.77069 725.4557 254.75623 748.2812 252.06693 750.9705C 249.50974 753.5277 233.77803 754.67426 201.24884 754.67426C 157.82713 754.67426 153.88408 754.20636 150.93944 748.7042zM271.20303 675.04346C 271.20303 617.22363 272.2175 594.39813 274.90677 591.70886C 280.17047 586.4452 425.81827 586.4452 431.08197 591.70886C 433.77127 594.39813 434.78574 617.22363 434.78574 675.04346L434.78574 675.04346L434.78574 754.67426L411.63724 754.67426L388.48874 754.67426L388.48874 681.916C 388.48874 614.2844 388.10815 609.2309 383.08743 610.1963C 378.1569 611.1443 377.6139 617.4859 376.8576 682.9545L376.8576 682.9545L376.0291 754.67426L352.9375 754.67426L329.8459 754.67426L329.8459 684.0635C 329.8459 629.2409 328.9323 612.69446 325.76004 610.0617C 316.0153 601.9743 314.41354 612.4547 314.41354 684.30286L314.41354 684.30286L314.41354 754.67426L292.8083 754.67426L271.20303 754.67426L271.20303 675.04346zM453.30453 674.5347C 453.30453 598.462 453.6075 594.2331 459.27457 591.20013C 467.90665 586.5804 549.84973 587.01794 554.54065 591.70886C 557.2299 594.39813 558.2444 617.22363 558.2444 675.04346L558.2444 675.04346L558.2444 754.67426L535.2369 754.67426L512.22943 754.67426L511.3168 733.84064C 510.6135 717.7851 509.34235 713.00696 505.77444 713.00696C 502.20657 713.00696 500.93542 717.7851 500.23212 733.84064L500.23212 733.84064L499.3195 754.67426L476.312 754.67426L453.30453 754.67426L453.30453 674.5347zM510.40414 651.02045C 510.40414 617.64087 509.6508 611.15356 505.77444 611.15356C 501.96646 611.15356 500.9895 617.6953 500.27008 648.0115C 499.34268 687.08905 500.35864 694.2358 506.5477 692.1728C 509.3666 691.23315 510.40414 680.16144 510.40414 651.02045z" stroke="none" fill="#000000" fill-rule="nonzero" />
        <path d="M652.2882 682.3316C 650.3363 679.9797 646.9225 671.7977 646.24524 663.2235C 645.0555 648.1612 648.1561 649.2584 629.7003 630.7263C 614.81775 615.7821 605.1365 605.9651 598.4457 586.27954C 587.90906 555.2793 574.12134 547.1535 557.2378 547.1535C 541.6023 547.1535 516.70776 542.13904 503.39117 536.30725C 497.07983 533.54333 484.83142 524.89496 476.17255 517.08856L476.17255 517.08856L460.4291 502.89523L453.19727 508.5838C 443.5961 516.1361 430.07758 515.75867 409.71323 507.3698C 390.7571 499.56104 387.18005 500.0409 387.18005 505.5305C 387.18005 512.00165 382.15445 512.2949 374.9817 507.59515C 359.88754 497.70508 372.6345 481.606 398.00488 482.86868C 413.11063 483.61307 413.82336 483.745 413.82336 477.57428C 413.82336 470.27765 409.3216 467.6908 396.6236 467.6908C 391.173 467.6908 386.42157 465.87994 381.67816 461.33545C 378.7681 459.58252 376.1694 458.21707 374.5064 454.2225C 375.8916 449.1519 377.31436 445.92413 380.01572 443.48578C 382.6426 438.3632 385.75998 432.83493 391.30063 429.3368C 394.4901 427.32306 397.59766 421.0514 400.02768 418.57794C 402.1773 416.3899 402.08667 415.70483 405.78745 418.75974C 409.59152 421.8999 411.07022 421.91696 414.74982 418.86316C 418.45926 415.78458 419.65433 415.88684 422.30322 419.5094C 424.03394 421.87628 430.29623 428.28302 438.9242 430.3113C 462.96982 435.96396 484.22708 448.66217 522.94977 480.60464C 572.2826 521.29944 577.1978 519.54553 600.62317 521.89636C 628.11566 524.65533 638.45636 514.4359 658.17676 470.94272C 671.1245 442.38654 679.5119 431.43564 695.1626 421.55582C 708.4566 413.16364 720.05945 412.85037 720.9832 422.3341C 721.86926 431.4295 721.76965 435.77716 702.1767 447.60178C 680.387 460.7521 673.93036 467.4588 660.2257 495.84357C 653.1686 510.46014 644.60034 523.51544 638.37115 529.1432L638.37115 529.1432L628.12476 538.4002L634.9325 552.15625C 639.9719 562.339 642.0754 571.8391 643.03033 588.72894C 644.8026 620.0755 642.6964 617.1337 653.281 627.1782C 658.20294 631.849 660.1344 628.1125 662.1357 637.51996C 664.0348 646.447 664.52765 650.8936 668.6707 662.12085C 671.26263 669.1446 668.8882 665.0903 667.9076 675.01556C 667.16144 682.56805 668.93604 679.74426 665.636 687.618C 664.197 691.0512 654.2402 684.68353 652.2882 682.3316z" stroke="none" fill="#000000" fill-rule="nonzero" />
		<text x="597.7781" y="760.17554" style="fill:#000000;font-family:ABeeZee;" font-size="32">

		</text>
		<text x="587.90607" y="760.17554" style="fill:#000000;font-family:ABeeZee;" font-size="32">
R
		</text>
        <path transform="matrix(1 0 0 1 0.50508 -1.515224)"  d="M617.2032 749.569C 617.2032 756.3357 613.5932 762.58844 607.733 765.9718C 601.8728 769.35516 594.65283 769.35516 588.7926 765.9718C 582.93243 762.58844 579.32245 756.3357 579.32245 749.569C 579.32245 742.80225 582.93243 736.5495 588.79266 733.16614C 594.65283 729.7828 601.8728 729.7828 607.73303 733.16614C 613.5932 736.5495 617.2032 742.80225 617.2032 749.569z" stroke="#000000" stroke-width="4" fill="none" />
	</g>
</g>
</svg>